<svg width="50" height="50" viewBox="0 0 50 50" fill="none" xmlns="http://www.w3.org/2000/svg">
<circle cx="25" cy="25" r="25" fill="#6E24FF"/>
<path d="M15.54 24.224V27.176C15.54 30.488 17.484 32.252 20.364 32.252C23.244 32.252 25.188 30.488 25.188 27.176V24.224C25.188 21.02 23.244 19.148 20.364 19.148C17.484 19.148 15.54 21.02 15.54 24.224ZM17.916 24.116C17.916 22.442 18.816 21.272 20.364 21.272C21.858 21.272 22.812 22.37 22.812 24.116V27.284C22.812 28.994 22.056 30.128 20.364 30.128C18.726 30.128 17.916 29.066 17.916 27.284V24.116ZM28.9627 19.4L25.7227 25.088H28.2067L29.9707 21.92H30.1867V32H32.5627V19.4H28.9627Z" fill="white"/>
</svg>
