<svg width="50" height="50" viewBox="0 0 50 50" fill="none" xmlns="http://www.w3.org/2000/svg">
<circle cx="25" cy="25" r="25" fill="#6E24FF"/>
<path d="M15.54 24.224V27.176C15.54 30.488 17.484 32.252 20.364 32.252C23.244 32.252 25.188 30.488 25.188 27.176V24.224C25.188 21.02 23.244 19.148 20.364 19.148C17.484 19.148 15.54 21.02 15.54 24.224ZM17.916 24.116C17.916 22.442 18.816 21.272 20.364 21.272C21.858 21.272 22.812 22.37 22.812 24.116V27.284C22.812 28.994 22.056 30.128 20.364 30.128C18.726 30.128 17.916 29.066 17.916 27.284V24.116ZM26.2267 23.612V24.044H28.6027V23.648C28.6027 22.01 29.7007 21.272 30.9967 21.272C32.2927 21.272 33.1387 22.01 33.1387 23.252C33.1387 24.728 32.0587 25.322 30.2587 25.808C27.9367 26.438 26.2987 27.554 26.2987 29.84V32H35.4427V29.84H28.6747V29.624C28.6747 28.454 29.6107 28.076 31.3747 27.626C34.0207 26.96 35.5147 25.808 35.5147 23.324C35.5147 20.732 33.4087 19.148 30.9607 19.148C28.4047 19.148 26.2267 20.66 26.2267 23.612Z" fill="white"/>
</svg>
