<svg width="50" height="50" viewBox="0 0 50 50" fill="none" xmlns="http://www.w3.org/2000/svg">
<circle cx="25" cy="25" r="25" fill="#6E24FF"/>
<path d="M14.54 24.224V27.176C14.54 30.488 16.484 32.252 19.364 32.252C22.244 32.252 24.188 30.488 24.188 27.176V24.224C24.188 21.02 22.244 19.148 19.364 19.148C16.484 19.148 14.54 21.02 14.54 24.224ZM16.916 24.116C16.916 22.442 17.816 21.272 19.364 21.272C20.858 21.272 21.812 22.37 21.812 24.116V27.284C21.812 28.994 21.056 30.128 19.364 30.128C17.726 30.128 16.916 29.066 16.916 27.284V24.116ZM25.4067 19.4V21.56H31.1127L27.9987 24.116V26.24H30.1947C31.4007 26.24 32.2467 26.834 32.2467 28.04C32.2467 29.246 31.3647 30.128 29.8707 30.128C28.2687 30.128 27.4227 29.12 27.4227 27.896V27.464H25.0467V27.968C25.0467 30.47 26.8647 32.252 29.8707 32.252C32.6787 32.252 34.6227 30.596 34.6227 28.04C34.6227 25.754 33.0567 24.548 31.3107 24.548H30.8427V24.332L34.3347 21.488V19.4H25.4067Z" fill="white"/>
</svg>
