<svg width="1010" height="474" viewBox="0 0 1010 474" fill="none" xmlns="http://www.w3.org/2000/svg">
<circle cx="9.5" cy="66.5" r="7" stroke="black" stroke-width="5"/>
<g clip-path="url(#clip0_1_544)">
<path d="M685.385 248.801C688.118 243.318 694.279 240.342 697.018 239.539C702.494 236.895 724.41 234.026 733.658 234.015C742.905 234.003 752.164 243.582 750.136 264.819C748.107 286.056 753.672 355.576 750.306 403.528C734.542 486.715 651.272 421.254 661.938 399.868C662.59 373.157 681.968 255.655 685.385 248.801Z" fill="#4052F2"/>
<path d="M741.2 239.483C739.278 236.198 734.458 234.696 732.289 234.357L731.599 230.59C733.769 231.272 739.206 232.978 743.591 234.343C749.073 236.048 753.523 234.33 767.916 240.478C782.308 246.625 780.598 248.339 791.913 258.601C803.228 268.862 805.158 309.598 804.334 341.838C803.383 379.04 800.788 426.134 799.045 455.192H718.416C716.922 447.086 741.022 372.852 739.632 356.961C737.895 337.098 737.855 304.219 738.182 291.888C738.509 279.558 739.178 266.2 741.909 258.662C744.639 251.124 743.603 243.59 741.2 239.483Z" fill="#3CB265"/>
<path d="M777.678 380.55C773.579 389.048 754.753 397.816 745.852 401.134C745.349 398.415 744.64 394.326 743.865 389.493C748.969 384.809 759.65 369.61 761.539 346.318C763.429 323.026 760.679 297.342 759.069 287.412L791.913 258.602C803.228 268.862 785.13 312.382 782.759 334.304C780.389 356.227 782.803 369.924 777.678 380.55Z" fill="#4052F2"/>
<path d="M785.583 338.775C783.212 360.697 797.511 380.607 792.386 391.23C789.653 396.896 765.667 392 757.148 396.213C762.046 386.996 771.701 365.554 771.138 353.499C770.434 338.43 768.34 305.895 776.884 291.5C783.72 279.984 792.113 275.27 795.455 274.353C794.137 292.058 787.273 323.142 785.583 338.775Z" fill="#3243E1"/>
<path d="M690.858 242.629C666.559 257.728 666.217 291.568 664.899 300.2C653.846 372.584 654.621 424.02 651.261 454.918C676.981 454.918 758.172 454.918 798.476 454.918C796.069 390.91 786.876 260.864 769.356 252.759C747.455 242.629 695.978 238.848 690.858 242.629Z" fill="#3CB265"/>
<path opacity="0.2" d="M770.75 432.053C781.444 434.348 791.251 433.687 799.68 431.215V441.441C780.248 448.657 691.043 426.635 654.621 406.557L655.138 391.193C680.575 399.361 745.993 426.739 770.75 432.053Z" fill="black"/>
<path d="M776.139 246.458C754.146 252.645 755.628 285.727 758.817 299.679C765.75 330.012 783.302 388.733 776.139 388.733C756.484 388.733 738.467 383.16 707.091 378.518L697.878 417.274C719.137 423.162 745.394 429.499 770.75 434.943C805.695 442.444 831.181 418.339 829.995 402.933C820.931 285.298 790.322 249.601 776.139 246.458Z" fill="#3CB265"/>
<path opacity="0.2" fill-rule="evenodd" clip-rule="evenodd" d="M776.718 384.003C776.718 384.003 776.718 384.003 774.652 383.92C774.652 385.988 774.652 385.988 774.651 385.988H774.51C774.448 385.988 774.366 385.988 774.266 385.988C774.215 385.988 774.16 385.988 774.101 385.988C773.741 385.988 773.214 385.983 772.534 385.978C771.176 385.967 769.213 385.942 766.792 385.9C761.948 385.807 755.263 385.626 747.897 385.264C733.231 384.541 715.636 383.093 704.567 380.141L705.632 376.145C716.223 378.973 733.404 380.41 748.1 381.134C755.414 381.491 762.055 381.672 766.869 381.765C769.275 381.806 771.223 381.832 772.569 381.842C772.594 381.842 772.62 381.842 772.645 381.842C772.647 381.77 772.649 381.692 772.651 381.615C772.684 380.178 772.717 378.12 772.719 375.613C772.724 370.597 772.603 363.815 772.103 356.729C771.601 349.629 770.722 342.293 769.232 336.143C768.487 333.069 767.601 330.344 766.56 328.116C765.512 325.871 764.364 324.253 763.158 323.261L765.788 320.068C767.651 321.602 769.121 323.826 770.308 326.366C771.503 328.925 772.467 331.932 773.251 335.169C774.82 341.64 775.719 349.236 776.228 356.437C776.738 363.652 776.86 370.539 776.855 375.618C776.853 378.156 776.819 380.25 776.785 381.708C776.768 382.437 776.752 383.01 776.739 383.398C776.736 383.512 776.732 383.61 776.729 383.693C776.727 383.75 776.725 383.801 776.724 383.848L776.72 383.962L776.718 383.998V384.003ZM774.652 383.92V385.988H776.638L776.718 384.003L774.652 383.92Z" fill="black"/>
<path d="M687.276 375.98C642.994 371.166 641.347 400.943 655.99 402.933C664.702 404.117 672.197 405.41 695.94 416.731L705.326 378.368C699.751 377.5 693.761 376.683 687.276 375.98Z" fill="#F1A494"/>
<path d="M718.094 380.792L705.579 378.389C705.579 378.389 701.203 389.663 699.322 397.159C697.419 404.743 695.953 416.891 695.953 416.891L707.505 420.504C707.505 420.504 709.601 407.307 711.596 399.687C713.571 392.134 718.094 380.792 718.094 380.792Z" fill="#202020"/>
<path d="M616.591 186.649V175.685L592.476 176.035C595.057 183.111 599.113 198.289 594.688 202.394C589.158 207.526 589.489 213.591 594.91 214.758C610.728 216.624 616.591 191.897 616.591 186.649Z" fill="#7579F7"/>
<path d="M592.476 176.037C595.057 183.112 599.113 198.29 594.689 202.396C594.029 203.008 593.453 203.633 592.958 204.262C596.116 205.001 602.498 204.495 602.763 196.564C603.029 188.633 603.242 179.47 603.316 175.879L592.476 176.037Z" fill="#595DE6"/>
<path d="M551.098 194.75C542.178 194.75 534.948 175.881 534.948 152.605C534.948 129.33 542.178 110.46 551.098 110.46C561.569 116.286 591.185 128.646 618.795 129.708C653.306 131.035 657.731 179.927 617.467 181.697C577.203 183.467 559.947 191.653 551.098 194.75Z" fill="#595DE6"/>
<path d="M534.946 152.606C534.946 175.882 542.177 194.75 551.096 194.75C560.015 194.75 567.246 175.882 567.246 152.606C567.246 129.33 560.015 110.461 551.096 110.461C542.177 110.461 534.946 129.33 534.946 152.606Z" fill="#7579F7"/>
<path d="M618.795 129.708C653.307 131.035 657.731 179.927 617.467 181.697C638.529 168.423 629.856 137.672 618.795 129.708Z" fill="#7579F7"/>
<path d="M538.708 152.606C538.708 171.239 543.859 186.344 550.212 186.344C556.566 186.344 561.716 171.239 561.716 152.606C561.716 133.973 556.566 118.868 550.212 118.868C543.859 118.868 538.708 133.973 538.708 152.606Z" fill="#595DE6"/>
<path d="M549.869 156.561C549.869 159.928 549.734 160.197 553.486 161.14C556.104 161.798 559.087 163.112 560.698 164.992C562.431 154.515 561.42 144.215 560.698 140.375C559.058 142.521 556.436 144.949 553.486 144.709C551.476 144.709 549.869 145.786 549.869 148.749V156.561Z" fill="#7579F7"/>
<path d="M561.016 140.992C561.469 144.613 561.716 148.525 561.716 152.606C561.716 157.022 561.427 161.24 560.901 165.106C560.785 162.341 557.07 160.46 553.973 159.686C550.876 158.911 550.986 158.69 550.986 155.925V149.509C550.986 147.076 552.314 146.191 553.973 146.191C557.247 146.456 560.033 142.762 561.016 140.992Z" fill="#595DE5"/>
<path d="M582.937 193.097C567.431 204.522 575.152 230.02 580.788 242.419C606.496 252.62 617.611 214.614 611.5 199.626C606.196 194.73 610.684 209.012 601.299 213.092C591.914 217.173 598.443 209.827 606.196 196.361C613.948 182.896 598.443 181.672 582.937 193.097Z" fill="#F1A494"/>
<path d="M613.593 225.74L576.244 237.115C578.203 283.922 595.813 369.733 646.737 326.969C653.63 322.104 666.515 314.715 662.912 324.081C702.367 328.385 731.862 266.934 741.678 235.671C730.444 231.068 718.33 230.219 707.022 231.313C657.926 231.313 633.86 270.568 626.158 279.954C619.612 265.707 615.937 236.912 613.593 225.74Z" fill="#3CB265"/>
<path d="M577.284 250.253C576.777 245.134 576.436 241.69 576.244 237.115C576.244 237.115 586.944 231.173 593.909 229.031C601.524 226.688 613.593 225.74 613.593 225.74C614.26 228.916 615.033 231.964 615.95 237.249C615.95 237.249 604.326 238.246 597.038 240.717C589.204 243.372 577.307 250.486 577.307 250.486L577.284 250.253Z" fill="#202020"/>
<path d="M638.914 263.976C632.787 270.855 628.63 276.942 626.159 279.954C632.416 290.819 643.728 316.582 638.914 332.713C641.43 331.143 644.037 329.237 646.737 326.969C655.444 321.335 661.055 316.294 662.74 323.995C668.276 275.862 647.773 267.136 638.914 263.976Z" fill="#202020"/>
<path d="M692.824 241.444C692.824 262.624 743.845 272.347 743.845 241.444V234.947C730.849 226.524 705.098 228.209 692.824 232.781V241.444Z" fill="#202020"/>
<path d="M698.445 238.516V211.993L738.204 203.832V238.516C738.204 262.591 698.445 255.655 698.445 238.516Z" fill="#F1A494"/>
<path d="M698.726 231.3V211.305L718.606 207.225C720.511 208.041 723.421 210.734 719.83 214.978C716.24 219.222 703.623 227.628 698.726 231.3Z" fill="#DE7D74"/>
<path d="M686.59 211.063C698.015 230.241 726.986 226.569 742.492 206.982C769.831 177.857 753.099 143.575 719.239 145.126C692.151 146.367 681.428 164.574 679.453 173.522C678.674 183.916 679.548 199.242 686.59 211.063Z" fill="#F1A494"/>
<path d="M746.976 178.9C753.596 178.524 744.303 204.998 749.222 199.405C768.091 177.952 761.66 155.338 759.072 144.674C756.484 134.01 745.075 129.242 742.868 128.877C741.92 128.285 741.246 128.141 741.028 128.143C741.016 118.58 718.375 119.861 714.328 118.762C728.544 122.62 736.298 126.682 732.566 126.682C728.655 126.682 719.486 119.358 710.451 119.795C699.696 120.315 688.422 124.53 685.857 132.258C683.292 139.986 674.094 138.158 668.574 136.326C669.318 142.946 674.472 146.618 680.36 148.818C667.122 152.145 660.861 145.899 656.072 140.387C654.979 148.849 661.259 170.911 673.399 172C683.111 172.871 697.544 164.246 703.547 159.824C701.711 162.034 697.523 166.747 695.465 167.927C723.116 175.884 725.615 157.958 730.393 155.01C732.177 169.721 736.553 178.789 738.518 181.484C739.743 180.747 743.15 179.198 746.976 178.9Z" fill="black"/>
<path d="M738.519 181.484C739.744 180.746 743.15 179.197 746.975 178.899C741.82 174.001 731.726 161.775 732.597 152.063C730.833 153.83 730.393 154.764 730.393 155.009C732.177 169.72 736.553 178.788 738.519 181.484Z" fill="#2F2F2F"/>
<path d="M680.36 148.816C667.122 152.143 660.861 145.897 656.073 140.386C670.078 163.542 693.239 152.478 701.694 147.686C691.4 152.407 683.182 150.406 680.36 148.816Z" fill="#2F2F2F"/>
<path d="M722.184 313.165C689.068 295.453 667.655 311.098 661.604 322.169L657.192 366.834C674.949 360.577 713.472 351.817 729.645 366.834C738.884 375.411 756.465 373.788 774.168 369.495C774.168 356.959 772.05 329.439 763.579 319.639C749.886 321.459 735.394 320.232 722.184 313.165Z" fill="#202020"/>
<path d="M823.987 355.521C824.757 349.168 816.927 315.992 812.916 300.198C803.031 307.232 784.213 316.895 763.58 319.638C772.051 329.437 774.169 356.958 774.169 369.493C795.203 364.391 816.407 355.521 823.987 355.521Z" fill="#202020"/>
<path fill-rule="evenodd" clip-rule="evenodd" d="M477 472C477 471.448 477.429 471 477.958 471H948.043C948.572 471 949 471.448 949 472C949 472.552 948.572 473 948.043 473H477.958C477.429 473 477 472.552 477 472Z" fill="#1C1C42"/>
<path d="M566 38L567.344 46.6565L576 48L567.344 49.3435L566 58L564.656 49.3435L556 48L564.656 46.6565L566 38Z" fill="black"/>
<path d="M622.5 442L625.12 458.88L642 461.5L625.12 464.12L622.5 481L619.88 464.12L603 461.5L619.88 458.88L622.5 442Z" fill="black"/>
<path d="M821 21L822.344 29.6565L831 31L822.344 32.3435L821 41L819.656 32.3435L811 31L819.656 29.6565L821 21Z" fill="black"/>
<path d="M886 215L887.344 223.656L896 225L887.344 226.344L886 235L884.656 226.344L876 225L884.656 223.656L886 215Z" fill="black"/>
<path d="M943.5 417L944.105 420.895L948 421.5L944.105 422.105L943.5 426L942.895 422.105L939 421.5L942.895 420.895L943.5 417Z" fill="black"/>
<circle cx="602" cy="359" r="4.5" stroke="black" stroke-width="3"/>
<circle cx="802" cy="54" r="6" fill="#34335F"/>
<circle cx="655.5" cy="209.5" r="2" stroke="black"/>
<circle cx="487" cy="445" r="4" fill="black"/>
<circle cx="909.5" cy="282.5" r="3" stroke="black"/>
</g>
<defs>
<clipPath id="clip0_1_544">
<rect width="592.5" height="474" fill="white" transform="translate(417)"/>
</clipPath>
</defs>
</svg>
