<svg width="25" height="25" viewBox="0 0 25 25" fill="none" xmlns="http://www.w3.org/2000/svg">
<rect y="0.000976562" width="24.36" height="24.36" rx="12.18" fill="#3CB265"/>
<path d="M16.182 7.65674H8.87401C8.20228 7.65674 7.65601 8.20301 7.65601 8.87474V16.1827C7.65601 16.8545 8.20228 17.4007 8.87401 17.4007H16.182C16.8537 17.4007 17.4 16.8545 17.4 16.1827V8.87474C17.4 8.20301 16.8537 7.65674 16.182 7.65674Z" fill="white"/>
<path fill-rule="evenodd" clip-rule="evenodd" d="M15.8778 12.5299H14.3553V11.3119C14.3553 10.9757 14.6281 11.0074 14.9643 11.0074H15.5733V9.48486H14.3553C13.8708 9.48486 13.406 9.67735 13.0634 10.02C12.7208 10.3626 12.5283 10.8273 12.5283 11.3119V12.5299H11.3103V14.0524H12.5283V17.4019H14.3553V14.0524H15.2688L15.8778 12.5299Z" fill="#3CB265"/>
</svg>
