<svg width="72" height="70" viewBox="0 0 72 70" fill="none" xmlns="http://www.w3.org/2000/svg">
<circle opacity="0.5" cx="37" cy="35" r="35" fill="#E9F2FF"/>
<path d="M50.6012 33.6057C50.6568 33.1614 50.6568 32.7727 50.6568 32.3284C50.6568 28.7935 49.2525 25.4034 46.753 22.9038C44.2534 20.4042 40.8633 19 37.3284 19C33.7935 19 30.4034 20.4042 27.9038 22.9038C25.4042 25.4034 24 28.7935 24 32.3284C24 32.7727 24 33.2169 24.0555 33.6057V33.7723C25.1662 44.3239 37.3284 51.7656 37.3284 51.7656C37.3284 51.7656 49.4905 44.2129 50.5457 33.8278L50.6012 33.6057Z" stroke="#1877F3" stroke-width="2.88181" stroke-miterlimit="10" stroke-linecap="round" stroke-linejoin="round"/>
<path d="M37.3283 38.9925C41.0088 38.9925 43.9925 36.0088 43.9925 32.3283C43.9925 28.6477 41.0088 25.6641 37.3283 25.6641C33.6477 25.6641 30.6641 28.6477 30.6641 32.3283C30.6641 36.0088 33.6477 38.9925 37.3283 38.9925Z" stroke="#1877F3" stroke-width="2.88181" stroke-miterlimit="10" stroke-linecap="round" stroke-linejoin="round"/>
</svg>
