<svg width="593" height="474" viewBox="0 0 593 474" fill="none" xmlns="http://www.w3.org/2000/svg">
<g clip-path="url(#clip0_1_1306)">
<path d="M268.384 248.801C271.117 243.318 277.278 240.342 280.017 239.539C285.494 236.895 307.41 234.026 316.658 234.015C325.905 234.003 335.164 243.582 333.135 264.819C331.106 286.056 336.672 355.576 333.306 403.528C317.542 486.715 234.271 421.254 244.937 399.868C245.59 373.157 264.968 255.655 268.384 248.801Z" fill="#4052F2"/>
<path d="M324.2 239.483C322.278 236.198 317.458 234.696 315.289 234.357L314.599 230.59C316.769 231.272 322.205 232.978 326.591 234.343C332.073 236.048 336.523 234.33 350.916 240.478C365.308 246.625 363.598 248.339 374.913 258.601C386.228 268.862 388.158 309.598 387.334 341.838C386.383 379.04 383.788 426.134 382.045 455.192H301.416C299.922 447.086 324.021 372.852 322.632 356.961C320.895 337.098 320.855 304.219 321.182 291.888C321.509 279.558 322.178 266.2 324.909 258.662C327.639 251.124 326.603 243.59 324.2 239.483Z" fill="#3CB265"/>
<path d="M360.678 380.55C356.579 389.048 337.753 397.816 328.852 401.134C328.349 398.415 327.64 394.326 326.865 389.493C331.969 384.809 342.65 369.61 344.539 346.318C346.429 323.026 343.679 297.342 342.069 287.412L374.913 258.602C386.228 268.862 368.13 312.382 365.759 334.304C363.389 356.227 365.803 369.924 360.678 380.55Z" fill="#4052F2"/>
<path d="M368.583 338.775C366.212 360.697 380.511 380.607 375.386 391.23C372.653 396.896 348.667 392 340.148 396.213C345.046 386.996 354.701 365.554 354.138 353.499C353.435 338.43 351.34 305.895 359.884 291.5C366.72 279.984 375.113 275.27 378.455 274.353C377.137 292.058 370.274 323.142 368.583 338.775Z" fill="#3243E1"/>
<path d="M273.857 242.629C249.559 257.728 249.217 291.568 247.898 300.2C236.846 372.584 237.621 424.02 234.261 454.918C259.981 454.918 341.172 454.918 381.476 454.918C379.069 390.91 369.876 260.864 352.355 252.759C330.455 242.629 278.978 238.848 273.857 242.629Z" fill="#3CB265"/>
<path opacity="0.2" d="M353.75 432.053C364.444 434.348 374.251 433.687 382.68 431.215V441.441C363.248 448.657 274.043 426.635 237.621 406.557L238.139 391.193C263.576 399.361 328.993 426.739 353.75 432.053Z" fill="black"/>
<path d="M359.139 246.458C337.146 252.645 338.628 285.727 341.817 299.679C348.75 330.012 366.302 388.733 359.139 388.733C339.484 388.733 321.467 383.16 290.091 378.518L280.878 417.274C302.137 423.162 328.394 429.499 353.75 434.943C388.695 442.444 414.181 418.339 412.994 402.934C403.931 285.298 373.322 249.601 359.139 246.458Z" fill="#3CB265"/>
<path opacity="0.2" fill-rule="evenodd" clip-rule="evenodd" d="M359.718 384.003C359.718 384.003 359.718 384.003 357.652 383.92C357.652 385.988 357.652 385.988 357.651 385.988H357.509C357.448 385.988 357.366 385.988 357.266 385.988C357.215 385.988 357.16 385.988 357.101 385.988C356.741 385.988 356.213 385.983 355.534 385.978C354.176 385.967 352.213 385.942 349.791 385.9C344.948 385.807 338.263 385.626 330.896 385.264C316.231 384.541 298.636 383.093 287.566 380.141L288.632 376.145C299.223 378.973 316.404 380.41 331.1 381.134C338.413 381.491 345.055 381.672 349.868 381.765C352.275 381.806 354.223 381.832 355.569 381.842C355.594 381.842 355.62 381.842 355.645 381.842C355.647 381.77 355.648 381.692 355.651 381.615C355.684 380.178 355.717 378.12 355.719 375.613C355.724 370.597 355.603 363.815 355.103 356.729C354.601 349.629 353.722 342.293 352.232 336.143C351.487 333.069 350.601 330.344 349.56 328.116C348.512 325.871 347.364 324.253 346.158 323.261L348.788 320.068C350.651 321.602 352.121 323.826 353.308 326.366C354.502 328.925 355.466 331.932 356.251 335.169C357.82 341.64 358.719 349.236 359.228 356.437C359.738 363.652 359.86 370.539 359.855 375.618C359.853 378.156 359.819 380.25 359.785 381.708C359.768 382.437 359.751 383.01 359.739 383.398C359.735 383.512 359.732 383.61 359.729 383.693C359.727 383.75 359.725 383.801 359.724 383.848L359.719 383.962L359.718 383.998V384.003ZM357.652 383.92V385.988H359.638L359.718 384.003L357.652 383.92Z" fill="black"/>
<path d="M270.276 375.98C225.994 371.166 224.347 400.943 238.989 402.933C247.702 404.117 255.197 405.41 278.939 416.731L288.326 378.368C282.751 377.5 276.761 376.683 270.276 375.98Z" fill="#F1A494"/>
<path d="M301.094 380.792L288.579 378.389C288.579 378.389 284.203 389.663 282.322 397.159C280.419 404.743 278.953 416.891 278.953 416.891L290.505 420.504C290.505 420.504 292.601 407.307 294.596 399.687C296.571 392.134 301.094 380.792 301.094 380.792Z" fill="#202020"/>
<path d="M199.59 186.649V175.685L175.476 176.035C178.057 183.111 182.113 198.289 177.688 202.394C172.157 207.526 172.489 213.591 177.909 214.758C193.727 216.624 199.59 191.897 199.59 186.649Z" fill="#7579F7"/>
<path d="M175.476 176.037C178.057 183.112 182.113 198.29 177.688 202.396C177.028 203.008 176.452 203.633 175.958 204.262C179.115 205.001 185.497 204.495 185.763 196.564C186.029 188.633 186.242 179.47 186.316 175.879L175.476 176.037Z" fill="#595DE6"/>
<path d="M134.097 194.75C125.178 194.75 117.947 175.881 117.947 152.605C117.947 129.33 125.178 110.46 134.097 110.46C144.569 116.286 174.184 128.646 201.794 129.708C236.306 131.035 240.731 179.927 200.467 181.697C160.203 183.467 142.947 191.653 134.097 194.75Z" fill="#595DE6"/>
<path d="M117.946 152.606C117.946 175.882 125.177 194.75 134.096 194.75C143.015 194.75 150.246 175.882 150.246 152.606C150.246 129.33 143.015 110.461 134.096 110.461C125.177 110.461 117.946 129.33 117.946 152.606Z" fill="#7579F7"/>
<path d="M201.794 129.708C236.306 131.035 240.731 179.927 200.467 181.697C221.528 168.423 212.855 137.672 201.794 129.708Z" fill="#7579F7"/>
<path d="M121.708 152.606C121.708 171.239 126.858 186.344 133.212 186.344C139.565 186.344 144.716 171.239 144.716 152.606C144.716 133.973 139.565 118.868 133.212 118.868C126.858 118.868 121.708 133.973 121.708 152.606Z" fill="#595DE6"/>
<path d="M132.869 156.561C132.869 159.928 132.734 160.197 136.486 161.14C139.104 161.798 142.087 163.112 143.698 164.992C145.431 154.515 144.42 144.215 143.698 140.375C142.058 142.521 139.436 144.949 136.486 144.709C134.476 144.709 132.869 145.786 132.869 148.749V156.561Z" fill="#7579F7"/>
<path d="M144.016 140.992C144.469 144.613 144.716 148.525 144.716 152.606C144.716 157.022 144.427 161.24 143.9 165.106C143.785 162.341 140.07 160.46 136.973 159.686C133.875 158.911 133.986 158.69 133.986 155.925V149.509C133.986 147.076 135.313 146.191 136.973 146.191C140.247 146.456 143.032 142.762 144.016 140.992Z" fill="#595DE5"/>
<path d="M165.937 193.097C150.431 204.522 158.151 230.02 163.788 242.419C189.495 252.62 200.611 214.614 194.5 199.626C189.196 194.73 193.684 209.012 184.299 213.092C174.913 217.173 181.442 209.827 189.196 196.361C196.948 182.896 181.442 181.672 165.937 193.097Z" fill="#F1A494"/>
<path d="M196.593 225.74L159.244 237.115C161.202 283.922 178.813 369.733 229.736 326.969C236.63 322.104 249.515 314.715 245.912 324.081C285.367 328.385 314.862 266.934 324.677 235.671C313.444 231.068 301.329 230.219 290.022 231.313C240.926 231.313 216.86 270.568 209.158 279.954C202.612 265.707 198.936 236.912 196.593 225.74Z" fill="#3CB265"/>
<path d="M160.284 250.253C159.777 245.134 159.435 241.69 159.244 237.115C159.244 237.115 169.943 231.173 176.909 229.031C184.524 226.688 196.593 225.74 196.593 225.74C197.259 228.916 198.033 231.964 198.95 237.249C198.95 237.249 187.326 238.246 180.038 240.717C172.204 243.372 160.306 250.486 160.306 250.486L160.284 250.253Z" fill="#202020"/>
<path d="M221.914 263.976C215.786 270.855 211.63 276.942 209.158 279.954C215.416 290.819 226.727 316.582 221.914 332.713C224.429 331.143 227.036 329.237 229.736 326.969C238.443 321.335 244.055 316.294 245.739 323.995C251.275 275.862 230.773 267.136 221.914 263.976Z" fill="#202020"/>
<path d="M275.823 241.444C275.823 262.624 326.844 272.347 326.844 241.444V234.947C313.848 226.524 288.097 228.209 275.823 232.781V241.444Z" fill="#202020"/>
<path d="M281.444 238.516V211.993L321.204 203.832V238.516C321.204 262.591 281.444 255.655 281.444 238.516Z" fill="#F1A494"/>
<path d="M281.727 231.3V211.305L301.606 207.225C303.511 208.041 306.421 210.734 302.83 214.978C299.24 219.222 286.623 227.628 281.727 231.3Z" fill="#DE7D74"/>
<path d="M269.59 211.063C281.015 230.241 309.986 226.569 325.492 206.982C352.831 177.857 336.099 143.575 302.239 145.126C275.151 146.367 264.428 164.574 262.453 173.522C261.674 183.916 262.548 199.242 269.59 211.063Z" fill="#F1A494"/>
<path d="M329.975 178.9C336.596 178.524 327.302 204.998 332.222 199.405C351.09 177.952 344.66 155.338 342.072 144.674C339.484 134.01 328.075 129.242 325.867 128.877C324.92 128.285 324.246 128.141 324.028 128.143C324.016 118.58 301.375 119.861 297.327 118.762C311.543 122.62 319.298 126.682 315.565 126.682C311.655 126.682 302.485 119.358 293.451 119.795C282.696 120.315 271.422 124.53 268.857 132.258C266.291 139.986 257.093 138.158 251.573 136.326C252.317 142.946 257.472 146.618 263.36 148.818C250.121 152.145 243.86 145.899 239.071 140.387C237.978 148.849 244.259 170.911 256.399 172C266.111 172.871 280.544 164.246 286.547 159.824C284.71 162.034 280.523 166.747 278.464 167.927C306.116 175.884 308.615 157.958 313.393 155.01C315.176 169.721 319.553 178.789 321.518 181.484C322.743 180.747 326.15 179.198 329.975 178.9Z" fill="black"/>
<path d="M321.518 181.484C322.743 180.746 326.15 179.197 329.975 178.899C324.819 174.001 314.725 161.775 315.596 152.063C313.833 153.83 313.393 154.764 313.393 155.009C315.177 169.72 319.553 178.788 321.518 181.484Z" fill="#2F2F2F"/>
<path d="M263.36 148.816C250.122 152.143 243.861 145.897 239.072 140.386C253.078 163.542 276.239 152.478 284.693 147.686C274.399 152.407 266.182 150.406 263.36 148.816Z" fill="#2F2F2F"/>
<path d="M305.184 313.165C272.068 295.453 250.655 311.098 244.605 322.169L240.192 366.834C257.949 360.577 296.472 351.817 312.645 366.834C321.884 375.411 339.466 373.788 357.168 369.495C357.168 356.959 355.05 329.439 346.579 319.639C332.886 321.459 318.394 320.232 305.184 313.165Z" fill="#202020"/>
<path d="M406.986 355.521C407.757 349.168 399.927 315.992 395.916 300.198C386.031 307.232 367.213 316.895 346.58 319.638C355.051 329.437 357.169 356.958 357.169 369.493C378.203 364.391 399.407 355.521 406.986 355.521Z" fill="#202020"/>
<path fill-rule="evenodd" clip-rule="evenodd" d="M60 472C60 471.448 60.4288 471 60.9578 471H531.043C531.572 471 532 471.448 532 472C532 472.552 531.572 473 531.043 473H60.9578C60.4288 473 60 472.552 60 472Z" fill="#1C1C42"/>
<path d="M149 38L150.344 46.6565L159 48L150.344 49.3435L149 58L147.656 49.3435L139 48L147.656 46.6565L149 38Z" fill="black"/>
<path d="M205.5 442L208.12 458.88L225 461.5L208.12 464.12L205.5 481L202.88 464.12L186 461.5L202.88 458.88L205.5 442Z" fill="black"/>
<path d="M469 215L470.344 223.656L479 225L470.344 226.344L469 235L467.656 226.344L459 225L467.656 223.656L469 215Z" fill="black"/>
<path d="M404 21L405.344 29.6565L414 31L405.344 32.3435L404 41L402.656 32.3435L394 31L402.656 29.6565L404 21Z" fill="black"/>
<path d="M526.5 417L527.105 420.895L531 421.5L527.105 422.105L526.5 426L525.895 422.105L522 421.5L525.895 420.895L526.5 417Z" fill="black"/>
<circle cx="185" cy="359" r="4.5" stroke="black" stroke-width="3"/>
<circle cx="385" cy="54" r="6" fill="#34335F"/>
<circle cx="238.5" cy="209.5" r="2" stroke="black"/>
<circle cx="70" cy="445" r="4" fill="black"/>
<circle cx="492.5" cy="282.5" r="3" stroke="black"/>
</g>
<defs>
<clipPath id="clip0_1_1306">
<rect width="592.5" height="474" fill="white"/>
</clipPath>
</defs>
</svg>
