<svg width="26" height="25" viewBox="0 0 26 25" fill="none" xmlns="http://www.w3.org/2000/svg">
<rect x="1.21875" y="0.500488" width="23.36" height="23.36" rx="11.68" stroke="#3CB265"/>
<path fill-rule="evenodd" clip-rule="evenodd" d="M18.8137 18.0974H16.3524V14.1826C16.3524 13.158 15.9677 12.4584 15.1209 12.4584C14.4735 12.4584 14.1133 12.9306 13.9458 13.3855C13.8828 13.5487 13.8926 13.7761 13.8926 14.0036V18.0974H11.4544C11.4544 18.0974 11.4857 11.1628 11.4544 10.5325H13.8926V11.7198C14.0369 11.2006 14.8159 10.4598 16.0591 10.4598C17.6017 10.4598 18.8137 11.5478 18.8137 13.8911V18.0974ZM8.98874 9.58618H8.9728C8.18721 9.58618 7.67773 9.00794 7.67773 8.27491C7.67773 7.52769 8.20214 6.96143 9.00368 6.96143C9.80446 6.96143 10.297 7.5263 10.3124 8.27269C10.3124 9.00571 9.80446 9.58618 8.98874 9.58618ZM7.95866 10.5325H10.1292V18.0974H7.95866V10.5325Z" fill="#3CB265"/>
</svg>
