<svg width="170" height="44" viewBox="0 0 170 44" fill="none" xmlns="http://www.w3.org/2000/svg">
<path d="M51.6385 31.2432V14.3432H57.5535L60.4748 29.0703H60.9094L63.8307 14.3432H69.7457V31.2432H66.6554V16.685H66.2208L63.3236 31.2432H58.0605L55.1634 16.685H54.7288V31.2432H51.6385ZM76.7431 31.5812C75.8901 31.5812 75.1255 31.4363 74.4495 31.1466C73.7735 30.8408 73.2344 30.4062 72.832 29.8429C72.4457 29.2634 72.2525 28.5633 72.2525 27.7424C72.2525 26.9216 72.4457 26.2375 72.832 25.6903C73.2344 25.127 73.7816 24.7085 74.4737 24.4349C75.1819 24.1452 75.9866 24.0003 76.888 24.0003H80.1714V23.3243C80.1714 22.761 79.9944 22.3023 79.6403 21.9482C79.2862 21.578 78.7228 21.3929 77.9503 21.3929C77.1938 21.3929 76.6305 21.5699 76.2603 21.924C75.8901 22.262 75.6486 22.7046 75.536 23.2519L72.7354 22.3103C72.9285 21.6987 73.2344 21.1434 73.6528 20.6444C74.0874 20.1294 74.6588 19.719 75.367 19.4132C76.0913 19.0913 76.9685 18.9303 77.9985 18.9303C79.5759 18.9303 80.8233 19.3246 81.7407 20.1133C82.6581 20.902 83.1168 22.0447 83.1168 23.5416V28.008C83.1168 28.4909 83.3422 28.7323 83.7928 28.7323H84.7585V31.2432H82.7305C82.135 31.2432 81.6441 31.0983 81.2578 30.8086C80.8715 30.5189 80.6784 30.1326 80.6784 29.6497V29.6256H80.2197C80.1553 29.8187 80.0105 30.0763 79.7851 30.3982C79.5598 30.704 79.2057 30.9776 78.7228 31.219C78.24 31.4604 77.5801 31.5812 76.7431 31.5812ZM77.2743 29.1186C78.1273 29.1186 78.8194 28.8852 79.3505 28.4184C79.8978 27.9356 80.1714 27.2998 80.1714 26.5112V26.2697H77.1053C76.5419 26.2697 76.0993 26.3904 75.7774 26.6319C75.4555 26.8733 75.2945 27.2113 75.2945 27.6459C75.2945 28.0804 75.4635 28.4345 75.8015 28.7082C76.1395 28.9818 76.6305 29.1186 77.2743 29.1186ZM86.9827 31.2432V19.2683H90.0247V31.2432H86.9827ZM88.5037 17.868C87.9565 17.868 87.4897 17.691 87.1034 17.3369C86.7332 16.9828 86.5481 16.516 86.5481 15.9366C86.5481 15.3572 86.7332 14.8904 87.1034 14.5363C87.4897 14.1822 87.9565 14.0052 88.5037 14.0052C89.067 14.0052 89.5338 14.1822 89.904 14.5363C90.2742 14.8904 90.4593 15.3572 90.4593 15.9366C90.4593 16.516 90.2742 16.9828 89.904 17.3369C89.5338 17.691 89.067 17.868 88.5037 17.868ZM93.3957 31.2432V14.3432H96.4377V31.2432H93.3957ZM99.712 31.2432V14.3432H105.627L108.548 29.0703H108.983L111.904 14.3432H117.819V31.2432H114.729V16.685H114.294L111.397 31.2432H106.134L103.237 16.685H102.802V31.2432H99.712ZM124.817 31.5812C123.964 31.5812 123.199 31.4363 122.523 31.1466C121.847 30.8408 121.308 30.4062 120.905 29.8429C120.519 29.2634 120.326 28.5633 120.326 27.7424C120.326 26.9216 120.519 26.2375 120.905 25.6903C121.308 25.127 121.855 24.7085 122.547 24.4349C123.255 24.1452 124.06 24.0003 124.961 24.0003H128.245V23.3243C128.245 22.761 128.068 22.3023 127.714 21.9482C127.36 21.578 126.796 21.3929 126.024 21.3929C125.267 21.3929 124.704 21.5699 124.334 21.924C123.964 22.262 123.722 22.7046 123.609 23.2519L120.809 22.3103C121.002 21.6987 121.308 21.1434 121.726 20.6444C122.161 20.1294 122.732 19.719 123.44 19.4132C124.165 19.0913 125.042 18.9303 126.072 18.9303C127.649 18.9303 128.897 19.3246 129.814 20.1133C130.732 20.902 131.19 22.0447 131.19 23.5416V28.008C131.19 28.4909 131.416 28.7323 131.866 28.7323H132.832V31.2432H130.804C130.209 31.2432 129.718 31.0983 129.331 30.8086C128.945 30.5189 128.752 30.1326 128.752 29.6497V29.6256H128.293C128.229 29.8187 128.084 30.0763 127.859 30.3982C127.633 30.704 127.279 30.9776 126.796 31.219C126.313 31.4604 125.654 31.5812 124.817 31.5812ZM125.348 29.1186C126.201 29.1186 126.893 28.8852 127.424 28.4184C127.971 27.9356 128.245 27.2998 128.245 26.5112V26.2697H125.179C124.615 26.2697 124.173 26.3904 123.851 26.6319C123.529 26.8733 123.368 27.2113 123.368 27.6459C123.368 28.0804 123.537 28.4345 123.875 28.7082C124.213 28.9818 124.704 29.1186 125.348 29.1186ZM135.056 31.2432V14.3432H138.098V23.6864H138.533L142.492 19.2683H146.452L140.923 25.0626L146.645 31.2432H142.734L138.533 26.487H138.098V31.2432H135.056ZM153.409 31.5812C152.218 31.5812 151.164 31.3317 150.246 30.8327C149.345 30.3177 148.637 29.6014 148.122 28.684C147.623 27.7505 147.373 26.656 147.373 25.4006V25.1109C147.373 23.8554 147.623 22.769 148.122 21.8516C148.621 20.9181 149.321 20.2018 150.222 19.7029C151.124 19.1878 152.17 18.9303 153.361 18.9303C154.536 18.9303 155.558 19.1959 156.427 19.727C157.296 20.2421 157.972 20.9664 158.455 21.8999C158.938 22.8173 159.179 23.8876 159.179 25.1109V26.149H150.464C150.496 26.9699 150.802 27.6378 151.381 28.1529C151.961 28.6679 152.669 28.9254 153.506 28.9254C154.359 28.9254 154.986 28.7404 155.389 28.3702C155.791 28 156.097 27.5895 156.306 27.1389L158.793 28.4426C158.568 28.8611 158.238 29.3198 157.803 29.8187C157.385 30.3016 156.821 30.7201 156.113 31.0742C155.405 31.4122 154.504 31.5812 153.409 31.5812ZM150.488 23.8796H156.089C156.025 23.1875 155.743 22.6322 155.244 22.2137C154.761 21.7953 154.125 21.586 153.337 21.586C152.516 21.586 151.864 21.7953 151.381 22.2137C150.898 22.6322 150.601 23.1875 150.488 23.8796ZM161.887 31.2432V19.2683H164.881V20.6203H165.315C165.492 20.1374 165.782 19.7834 166.184 19.558C166.603 19.3327 167.086 19.22 167.633 19.22H169.081V21.924H167.585C166.812 21.924 166.176 22.1333 165.677 22.5517C165.178 22.9541 164.929 23.5818 164.929 24.4349V31.2432H161.887Z" fill="black"/>
<path d="M31.9138 42.0991C37.539 42.0991 42.0991 37.539 42.0991 31.9138C42.0991 26.2886 37.539 21.7285 31.9138 21.7285C26.2887 21.7285 21.7286 26.2886 21.7286 31.9138C21.7286 37.539 26.2887 42.0991 31.9138 42.0991Z" fill="#5EDC89"/>
<path opacity="0.25" d="M31.9138 21.7282C30.4118 21.7208 28.9267 22.0457 27.5649 22.6796C26.2032 23.3135 24.9985 24.2407 24.0372 25.3949C25.968 23.5958 28.5217 22.6163 31.1604 22.6629C33.7991 22.7094 36.3167 23.7784 38.1828 25.6445C40.0489 27.5106 41.1179 30.0282 41.1644 32.6669C41.211 35.3056 40.2315 37.8593 38.4324 39.7901C40.0606 38.4553 41.2352 36.6488 41.7945 34.619C42.3538 32.5893 42.2703 30.4361 41.5556 28.4557C40.8409 26.4753 39.53 24.7651 37.8034 23.5604C36.0767 22.3556 34.0192 21.7155 31.9138 21.7282Z" fill="white"/>
<path d="M31.914 21.7288C34.1185 21.7239 36.2644 22.4391 38.0251 23.7658V8.14844H1.35815V32.5931H21.7966C21.7966 32.3894 21.7287 32.1178 21.7287 31.9141C21.7287 29.2128 22.8018 26.6221 24.7119 24.712C26.622 22.8019 29.2127 21.7288 31.914 21.7288Z" fill="#FFF4E3"/>
<path opacity="0.14" d="M17.6545 32.593H21.7965C21.7965 32.3893 21.7286 32.1177 21.7286 31.914C21.7278 29.8564 22.3502 27.8469 23.5138 26.15C24.6773 24.4531 26.3276 23.1484 28.2471 22.4077H27.8397C25.1384 22.4077 22.5478 23.4808 20.6377 25.3909C18.7276 27.301 17.6545 29.8917 17.6545 32.593Z" fill="#000064"/>
<path opacity="0.14" d="M1.35815 8.14844L19.6916 22.1362L38.0251 8.14844V9.16696L17.6546 27.1609L1.35815 11.204V8.14844Z" fill="#000064"/>
<path d="M21.7287 32.5931H1.35815V8.14844H38.0251V23.7658" stroke="#2E4369" stroke-width="1.35804" stroke-miterlimit="10" stroke-linecap="round" stroke-linejoin="round"/>
<path d="M35.9881 29.877L30.5559 35.3092L27.8399 32.5931M1.35815 8.14844L19.6916 22.1362L38.0251 8.14844H1.35815Z" stroke="#2E4369" stroke-width="1.35804" stroke-miterlimit="10" stroke-linecap="round" stroke-linejoin="round"/>
<path d="M31.9138 42.0991C37.539 42.0991 42.0991 37.539 42.0991 31.9138C42.0991 26.2886 37.539 21.7285 31.9138 21.7285C26.2887 21.7285 21.7286 26.2886 21.7286 31.9138C21.7286 37.539 26.2887 42.0991 31.9138 42.0991Z" fill="#3CB265" stroke="#2E4369" stroke-width="1.35804" stroke-miterlimit="10" stroke-linecap="round" stroke-linejoin="round"/>
</svg>
