<svg width="118" height="118" viewBox="0 0 118 118" fill="none" xmlns="http://www.w3.org/2000/svg">
<g filter="url(#filter0_d_1_1524)">
<circle cx="59" cy="53" r="32" fill="white"/>
</g>
<g clip-path="url(#clip0_1_1524)">
<path d="M48.4409 66.8621V52.5125L43.9907 48.4412L40 46.1819V64.3298C40 65.731 41.1352 66.8621 42.5323 66.8621H48.4409Z" fill="#4285F4"/>
<path d="M68.6992 66.8622H74.6078C76.0091 66.8622 77.1401 65.7269 77.1401 64.3299V46.1821L72.6201 48.7699L68.6992 52.5126V66.8622Z" fill="#34A853"/>
<path d="M48.4405 52.5126L47.835 46.9058L48.4405 41.5396L58.5696 49.1364L68.6986 41.5396L69.376 46.6161L68.6986 52.5126L58.5696 60.1095L48.4405 52.5126Z" fill="#EA4335"/>
<path d="M68.6992 41.5394V52.5125L77.1401 46.1819V42.8055C77.1401 39.674 73.5654 37.8888 71.0628 39.7668L68.6992 41.5394Z" fill="#FBBC04"/>
<path d="M40 46.1819L43.8821 49.0937L48.4409 52.5126V41.5395L46.0773 39.7669C43.5704 37.8887 40 39.6741 40 42.8054V46.1818V46.1819Z" fill="#C5221F"/>
</g>
<defs>
<filter id="filter0_d_1_1524" x="0" y="0" width="118" height="118" filterUnits="userSpaceOnUse" color-interpolation-filters="sRGB">
<feFlood flood-opacity="0" result="BackgroundImageFix"/>
<feColorMatrix in="SourceAlpha" type="matrix" values="0 0 0 0 0 0 0 0 0 0 0 0 0 0 0 0 0 0 127 0" result="hardAlpha"/>
<feMorphology radius="5" operator="erode" in="SourceAlpha" result="effect1_dropShadow_1_1524"/>
<feOffset dy="6"/>
<feGaussianBlur stdDeviation="16"/>
<feComposite in2="hardAlpha" operator="out"/>
<feColorMatrix type="matrix" values="0 0 0 0 0 0 0 0 0 0 0 0 0 0 0 0 0 0 0.15 0"/>
<feBlend mode="normal" in2="BackgroundImageFix" result="effect1_dropShadow_1_1524"/>
<feBlend mode="normal" in="SourceGraphic" in2="effect1_dropShadow_1_1524" result="shape"/>
</filter>
<clipPath id="clip0_1_1524">
<rect width="37.1399" height="28" fill="white" transform="translate(40 39)"/>
</clipPath>
</defs>
</svg>
