<svg width="52" height="52" viewBox="0 0 52 52" fill="none" xmlns="http://www.w3.org/2000/svg">
<circle cx="26.075" cy="25.9997" r="25.2664" fill="#2E8DF0"/>
<path d="M18.8649 25.972H17.3139C16.9842 25.972 16.6785 25.7745 16.581 25.4787C16.3003 24.6522 15.4942 24.3558 15.4942 24.3558C15.2012 24.2449 14.9813 23.9616 14.9813 23.6163V22.0494C14.9813 21.6189 15.3355 21.2735 15.7627 21.2735C16.1902 21.2735 16.5322 21.5941 16.5322 22.0494L16.5202 23.3075L18.3151 21.4956C18.387 21.4223 18.4726 21.364 18.5669 21.3243C18.6613 21.2845 18.7625 21.264 18.8647 21.264C18.9669 21.264 19.0681 21.2845 19.1624 21.3243C19.2567 21.364 19.3423 21.4223 19.4142 21.4956C19.7196 21.8023 19.7196 22.3081 19.4142 22.6169L17.6433 24.3931H18.8649C19.2927 24.3931 19.6463 24.751 19.6463 25.182C19.6463 25.6142 19.2927 25.972 18.8649 25.972ZM18.8526 27.8699L17.6069 27.8578L19.402 29.6709C19.4746 29.7436 19.5322 29.8301 19.5715 29.9254C19.6108 30.0207 19.631 30.123 19.631 30.2262C19.631 30.3295 19.6108 30.4317 19.5715 30.527C19.5322 30.6223 19.4746 30.7088 19.402 30.7815C19.33 30.8547 19.2444 30.9129 19.1501 30.9526C19.0558 30.9922 18.9547 31.0126 18.8525 31.0126C18.7504 31.0126 18.6493 30.9922 18.555 30.9526C18.4607 30.9129 18.3751 30.8547 18.3031 30.7815L16.5323 28.9925V30.2256C16.5323 30.6947 16.1783 31.0156 15.7505 31.0156C15.3234 31.0156 14.9691 30.6578 14.9691 30.2256V28.6595C14.9691 28.3261 15.1766 28.0174 15.47 27.9193C16.288 27.6354 16.5688 26.8225 16.5688 26.8225C16.6786 26.5268 16.972 26.3047 17.3016 26.3047H18.8526C19.28 26.3047 19.6343 26.6629 19.6343 27.0937C19.6343 27.5244 19.317 27.8699 18.8526 27.8699ZM13.859 31.0031C13.4315 31.0031 13.0895 30.7193 13.1016 30.2256L13.1138 28.9677L11.3187 30.7815C11.0137 31.0896 10.5127 31.0896 10.22 30.7815C9.91429 30.4727 9.91429 29.9667 10.22 29.6709L11.9781 27.882H10.7693C10.6666 27.8824 10.565 27.8623 10.4701 27.8228C10.3752 27.7833 10.2889 27.7253 10.2163 27.652C10.1437 27.5788 10.0861 27.4917 10.047 27.3959C10.0078 27.3001 9.9877 27.1974 9.98794 27.0938C9.98768 26.9901 10.0077 26.8873 10.0469 26.7915C10.0861 26.6956 10.1436 26.6085 10.2162 26.5352C10.2888 26.4619 10.3751 26.4038 10.47 26.3643C10.5649 26.3247 10.6666 26.3045 10.7693 26.3048H12.3204C12.6498 26.3048 12.9432 26.5024 13.0529 26.798C13.3337 27.6355 14.1274 27.9194 14.1274 27.9194C14.4325 28.0303 14.6408 28.3142 14.6408 28.6596V30.2257C14.6408 30.6579 14.2985 31.0032 13.8591 31.0032L13.859 31.0031ZM14.1398 24.3686C13.3214 24.6647 13.0407 25.4661 13.0407 25.4661C12.9305 25.7621 12.6378 25.9846 12.3078 25.9846H10.757C10.3296 25.9845 9.97559 25.6266 9.97559 25.1949C9.97559 24.7634 10.2687 24.418 10.757 24.418L12.0031 24.4301L10.2075 22.6169C10.1349 22.5443 10.0773 22.458 10.038 22.3628C9.99869 22.2676 9.97845 22.1655 9.97845 22.0623C9.97845 21.9592 9.99869 21.8571 10.038 21.7619C10.0773 21.6667 10.1349 21.5803 10.2075 21.5077C10.2794 21.4344 10.365 21.3762 10.4593 21.3365C10.5536 21.2968 10.6548 21.2764 10.757 21.2764C10.8592 21.2764 10.9604 21.2968 11.0547 21.3365C11.149 21.3762 11.2346 21.4344 11.3066 21.5077L13.0773 23.2954V22.0619C13.0773 21.6314 13.4193 21.2735 13.859 21.2735C14.2861 21.2735 14.6281 21.6314 14.6281 22.0618V23.6281C14.6281 23.9617 14.4325 24.2696 14.1397 24.3686H14.1398ZM39.3644 31.0646C38.5341 31.0646 37.4842 30.9294 36.9597 30.7688L37.3751 29.0414C37.7523 29.2145 38.5953 29.4857 39.3644 29.4857C40.2928 29.4857 40.9887 29.0787 40.9887 28.2518C40.9887 27.5492 40.561 27.1799 39.3644 26.7121C38.1435 26.2309 37.1306 25.6386 37.1306 23.8872C37.1306 22.1727 38.4729 21.224 40.5124 21.224C41.3793 21.224 42.2585 21.3967 42.7837 21.5695L42.3809 23.2458C42.0266 23.0486 41.3427 22.8016 40.5124 22.8016C39.5231 22.8016 39.0837 23.1843 39.0837 23.8375C39.0837 24.5043 39.5719 24.7509 40.6342 25.2196C42.1002 25.8489 43.0163 26.4776 43.0163 28.1285C43.0163 29.9544 41.5749 31.0646 39.3644 31.0646ZM32.8078 26.7488H31.685V29.5101H32.8686C33.7971 29.5101 34.5173 29.1402 34.5173 28.117C34.5173 27.1798 33.8459 26.7488 32.8077 26.7488H32.8078ZM32.8198 22.8144H31.685V25.3183H32.7343C33.5282 25.3183 34.2123 24.8866 34.2123 24.023C34.2123 23.2086 33.7236 22.8144 32.8198 22.8144ZM32.9176 30.9789H29.8412V21.3473H33.0763C34.9328 21.3473 36.154 22.2593 36.154 23.8628C36.154 24.9978 35.4088 25.6386 34.7006 25.9225C35.6775 26.1816 36.4713 26.8597 36.4713 28.1285C36.4713 29.8065 35.1893 30.9789 32.9176 30.9789ZM25.1285 22.8265H24.188V25.577H24.9209C25.9102 25.577 26.6294 25.1453 26.6294 24.2078C26.6294 23.3812 26.1041 22.8265 25.1285 22.8265ZM26.8982 30.9788C26.3239 29.8066 25.2873 27.9562 24.6763 26.9951H24.1879V30.9789H22.356V21.3473H25.3729C27.3621 21.3473 28.5467 22.3084 28.5467 24.2324C28.5467 25.5522 27.6063 26.3664 26.6177 26.6997C27.2523 27.5736 28.4735 29.7201 29.084 30.9789L26.8982 30.9788Z" fill="white"/>
</svg>
