
<svg width="70" height="70" viewBox="0 0 70 70" fill="none" xmlns="http://www.w3.org/2000/svg">
<circle opacity="0.5" cx="35" cy="35" r="35" fill="#E9F2FF"/>
<g clip-path="url(#clip0_0_1)">
<path d="M29.6273 34.7453C28.2455 33.3327 27.4844 31.4755 27.4844 29.5156C27.4844 25.3714 30.8558 22 35 22C39.1442 22 42.5156 25.3714 42.5156 29.5156C42.5156 33.0529 40.0589 36.0269 36.7623 36.822C36.412 37.4323 35.7542 37.8438 35 37.8438C33.8783 37.8438 32.9688 36.9342 32.9688 35.8125C32.9688 34.6908 33.8783 33.7812 35 33.7812C35.7216 33.7812 36.3548 34.1579 36.7153 34.7251C38.9018 34.0032 40.4844 31.941 40.4844 29.5156C40.4844 26.4916 38.0241 24.0312 35 24.0312C31.9759 24.0312 29.5156 26.4916 29.5156 29.5156C29.5156 30.9413 30.071 32.2941 31.0793 33.325C31.4715 33.7259 31.4646 34.3688 31.0637 34.7612C30.6626 35.1533 30.0197 35.1464 29.6273 34.7453ZM45.9376 38.5045C45.0759 37.7473 44.0309 37.0931 42.8314 36.5601C42.3188 36.3324 41.7188 36.5633 41.4909 37.0759C41.2632 37.5885 41.494 38.1887 42.0066 38.4164C43.0181 38.8659 43.8897 39.4088 44.5969 40.0303C45.4687 40.7964 45.9688 41.9057 45.9688 43.0742V44.9531C45.9688 45.5131 45.5131 45.9688 44.9531 45.9688H25.0469C24.4869 45.9688 24.0312 45.5131 24.0312 44.9531V43.0742C24.0312 41.9057 24.5313 40.7964 25.4031 40.0303C26.2543 39.2823 27.7918 38.255 30.2823 37.6081C30.8252 37.4671 31.1509 36.9124 31.0099 36.3697C30.8689 35.8268 30.3144 35.5011 29.7715 35.6421C26.895 36.3893 25.0792 37.6111 24.0624 38.5045C22.7516 39.656 22 41.3217 22 43.0742V44.9531C22 46.6333 23.3667 48 25.0469 48H44.9531C46.6333 48 48 46.6333 48 44.9531V43.0742C48 41.3217 47.2484 39.656 45.9376 38.5045Z" fill="#1877F3"/>
</g>
<defs>
<clipPath id="clip0_0_1">
<rect width="26" height="26" fill="white" transform="translate(22 22)"/>
</clipPath>
</defs>
</svg>
