<svg width="25" height="25" viewBox="0 0 25 25" fill="none" xmlns="http://www.w3.org/2000/svg">
<rect x="0.859375" y="0.500488" width="23.36" height="23.36" rx="11.68" stroke="#3CB265"/>
<path d="M18.4551 8.81041C18.0362 9.00716 17.5932 9.13793 17.1396 9.19869C17.6176 8.89331 17.9749 8.40975 18.1439 7.83963C17.6965 8.12537 17.207 8.32661 16.6966 8.43466C16.3836 8.07451 15.9772 7.82411 15.5303 7.71601C15.0833 7.6079 14.6165 7.6471 14.1905 7.82851C13.7645 8.00991 13.3991 8.32513 13.1417 8.73318C12.8843 9.14122 12.7468 9.62322 12.7472 10.1165C12.7455 10.3047 12.7632 10.4926 12.8001 10.6766C11.8919 10.6286 11.0033 10.3748 10.1924 9.93172C9.38153 9.48861 8.66661 8.8662 8.09441 8.10518C7.80064 8.64599 7.7096 9.28713 7.83988 9.89776C7.97016 10.5084 8.31193 11.0425 8.79544 11.391C8.43422 11.3804 8.08063 11.2766 7.76447 11.0881V11.1149C7.76507 11.6826 7.94727 12.2328 8.28042 12.6728C8.61357 13.1128 9.07732 13.4158 9.5936 13.5307C9.39828 13.5862 9.19699 13.6134 8.99501 13.6117C8.84998 13.6145 8.70509 13.6004 8.56286 13.5697C8.71041 14.0576 8.99478 14.4843 9.37681 14.791C9.75885 15.0977 10.2198 15.2693 10.6961 15.2822C9.88804 15.9628 8.89143 16.3319 7.86556 16.3308C7.68292 16.3321 7.50039 16.3208 7.31909 16.297C8.363 17.0213 9.57944 17.4045 10.8213 17.4002C15.0223 17.4002 17.3192 13.6529 17.3192 10.4046C17.3192 10.2959 17.3157 10.191 17.3108 10.0868C17.7611 9.73978 18.1489 9.30724 18.4551 8.81041Z" fill="#3CB265"/>
</svg>
